<?xml version="1.0" encoding="utf-8"?>
<!-- Generator: Adobe Illustrator 16.0.0, SVG Export Plug-In . SVG Version: 6.00 Build 0)  -->
<!DOCTYPE svg PUBLIC "-//W3C//DTD SVG 1.1//EN" "http://www.w3.org/Graphics/SVG/1.1/DTD/svg11.dtd">
<svg version="1.1" id="图层_1" xmlns="http://www.w3.org/2000/svg" xmlns:xlink="http://www.w3.org/1999/xlink" x="0px" y="0px"
	 width="600px" height="450px" viewBox="0 0 600 450" enable-background="new 0 0 600 450" xml:space="preserve">
<g opacity="0.5">
	<rect x="21.408" y="20.464" fill="#FFFFFF" width="141.769" height="85.059"/>
	<g>
		<polyline fill="none" stroke="#000000" points="163.176,102.524 163.176,105.525 160.173,105.525 		"/>
		<line fill="none" stroke="#000000" stroke-dasharray="5.9014,5.9014" x1="154.272" y1="105.525" x2="27.362" y2="105.525"/>
		<polyline fill="none" stroke="#000000" points="24.408,105.525 21.408,105.525 21.408,102.524 		"/>
		<line fill="none" stroke="#000000" stroke-dasharray="6.0799,6.0799" x1="21.408" y1="96.442" x2="21.408" y2="26.506"/>
		<polyline fill="none" stroke="#000000" points="21.408,23.464 21.408,20.464 24.408,20.464 		"/>
		<line fill="none" stroke="#000000" stroke-dasharray="5.9014,5.9014" x1="30.312" y1="20.464" x2="157.224" y2="20.464"/>
		<polyline fill="none" stroke="#000000" points="160.173,20.464 163.176,20.464 163.176,23.464 		"/>
		<line fill="none" stroke="#000000" stroke-dasharray="6.0799,6.0799" x1="163.176" y1="29.546" x2="163.176" y2="99.482"/>
	</g>
</g>
<g opacity="0.5">
	<rect x="178.989" y="20.464" fill="#FFFFFF" width="141.767" height="170.121"/>
	<g>
		<polyline fill="none" stroke="#000000" points="320.756,187.584 320.756,190.585 317.754,190.585 		"/>
		<line fill="none" stroke="#000000" stroke-dasharray="5.9014,5.9014" x1="311.852" y1="190.585" x2="184.941" y2="190.585"/>
		<polyline fill="none" stroke="#000000" points="181.988,190.585 178.989,190.585 178.989,187.584 		"/>
		<line fill="none" stroke="#000000" stroke-dasharray="6.077,6.077" x1="178.989" y1="181.507" x2="178.989" y2="26.502"/>
		<polyline fill="none" stroke="#000000" points="178.989,23.464 178.989,20.464 181.988,20.464 		"/>
		<line fill="none" stroke="#000000" stroke-dasharray="5.9014,5.9014" x1="187.891" y1="20.464" x2="314.803" y2="20.464"/>
		<polyline fill="none" stroke="#000000" points="317.754,20.464 320.756,20.464 320.756,23.464 		"/>
		<line fill="none" stroke="#000000" stroke-dasharray="6.077,6.077" x1="320.756" y1="29.542" x2="320.756" y2="184.545"/>
	</g>
</g>
<g opacity="0.5">
	<rect x="383.037" y="20.464" fill="#FFFFFF" width="141.768" height="222.096"/>
	<g>
		<polyline fill="none" stroke="#000000" points="524.805,239.557 524.805,242.559 521.807,242.559 		"/>
		<line fill="none" stroke="#000000" stroke-dasharray="5.9014,5.9014" x1="515.905" y1="242.559" x2="388.99" y2="242.559"/>
		<polyline fill="none" stroke="#000000" points="386.039,242.559 383.037,242.559 383.037,239.557 		"/>
		<line fill="none" stroke="#000000" stroke-dasharray="5.8389,5.8389" x1="383.037" y1="233.717" x2="383.037" y2="26.383"/>
		<polyline fill="none" stroke="#000000" points="383.037,23.464 383.037,20.464 386.039,20.464 		"/>
		<line fill="none" stroke="#000000" stroke-dasharray="5.9014,5.9014" x1="391.94" y1="20.464" x2="518.852" y2="20.464"/>
		<polyline fill="none" stroke="#000000" points="521.807,20.464 524.805,20.464 524.805,23.464 		"/>
		<line fill="none" stroke="#000000" stroke-dasharray="5.8389,5.8389" x1="524.805" y1="29.304" x2="524.805" y2="236.639"/>
	</g>
</g>
<g opacity="0.5">
	<rect x="21.408" y="258.041" fill="#FFFFFF" width="70.884" height="170.123"/>
	<g>
		<polyline fill="none" stroke="#000000" points="92.291,425.162 92.291,428.164 89.29,428.164 		"/>
		<line fill="none" stroke="#000000" stroke-dasharray="5.8969,5.8969" x1="83.393" y1="428.164" x2="27.358" y2="428.164"/>
		<polyline fill="none" stroke="#000000" points="24.408,428.164 21.408,428.164 21.408,425.162 		"/>
		<line fill="none" stroke="#000000" stroke-dasharray="6.077,6.077" x1="21.408" y1="419.084" x2="21.408" y2="264.082"/>
		<polyline fill="none" stroke="#000000" points="21.408,261.041 21.408,258.041 24.408,258.041 		"/>
		<line fill="none" stroke="#000000" stroke-dasharray="5.8969,5.8969" x1="30.307" y1="258.041" x2="86.342" y2="258.041"/>
		<polyline fill="none" stroke="#000000" points="89.29,258.041 92.291,258.041 92.291,261.041 		"/>
		<line fill="none" stroke="#000000" stroke-dasharray="6.077,6.077" x1="92.291" y1="267.123" x2="92.291" y2="422.127"/>
	</g>
</g>
<g opacity="0.5">
	<rect x="108.105" y="258.041" fill="#FFFFFF" width="212.653" height="170.123"/>
	<g>
		<polyline fill="none" stroke="#000000" points="320.756,425.162 320.756,428.164 317.754,428.164 		"/>
		<line fill="none" stroke="#000000" stroke-dasharray="5.9028,5.9028" x1="311.852" y1="428.164" x2="114.056" y2="428.164"/>
		<polyline fill="none" stroke="#000000" points="111.105,428.164 108.105,428.164 108.105,425.162 		"/>
		<line fill="none" stroke="#000000" stroke-dasharray="6.077,6.077" x1="108.105" y1="419.084" x2="108.105" y2="264.082"/>
		<polyline fill="none" stroke="#000000" points="108.105,261.041 108.105,258.041 111.105,258.041 		"/>
		<line fill="none" stroke="#000000" stroke-dasharray="5.9028,5.9028" x1="117.01" y1="258.041" x2="314.803" y2="258.041"/>
		<polyline fill="none" stroke="#000000" points="317.754,258.041 320.756,258.041 320.756,261.041 		"/>
		<line fill="none" stroke="#000000" stroke-dasharray="6.077,6.077" x1="320.756" y1="267.123" x2="320.756" y2="422.127"/>
	</g>
</g>
<g opacity="0.5">
	<rect x="383.037" y="258.041" fill="#FFFFFF" width="195.555" height="170.123"/>
	<g>
		<polyline fill="none" stroke="#000000" points="578.592,425.162 578.592,428.164 575.592,428.164 		"/>
		<line fill="none" stroke="#000000" stroke-dasharray="6.113,6.113" x1="569.479" y1="428.164" x2="389.098" y2="428.164"/>
		<polyline fill="none" stroke="#000000" points="386.039,428.164 383.037,428.164 383.037,425.162 		"/>
		<line fill="none" stroke="#000000" stroke-dasharray="6.077,6.077" x1="383.037" y1="419.084" x2="383.037" y2="264.082"/>
		<polyline fill="none" stroke="#000000" points="383.037,261.041 383.037,258.041 386.039,258.041 		"/>
		<line fill="none" stroke="#000000" stroke-dasharray="6.113,6.113" x1="392.156" y1="258.041" x2="572.531" y2="258.041"/>
		<polyline fill="none" stroke="#000000" points="575.592,258.041 578.592,258.041 578.592,261.041 		"/>
		<line fill="none" stroke="#000000" stroke-dasharray="6.077,6.077" x1="578.592" y1="267.123" x2="578.592" y2="422.127"/>
	</g>
</g>
<text transform="matrix(1 0 0 1 35.845 417.1602)" font-family="'STHeitiSC-Light'" font-size="14.0035">供应商</text>
<text transform="matrix(1 0 0 1 194.5964 417.1602)" font-family="'STHeitiSC-Light'" font-size="14.0035">制造商</text>
<text transform="matrix(1 0 0 1 459.8088 417.1602)" font-family="'STHeitiSC-Light'" font-size="14.0035">分销商</text>
<text transform="matrix(1 0 0 1 432.9163 41.0669)" font-family="'STHeitiSC-Light'" font-size="14.0035">批发商</text>
<text transform="matrix(1 0 0 1 78.2878 41.0669)" font-family="'STHeitiSC-Light'" font-size="14.0035">客户</text>
<text transform="matrix(1 0 0 1 228.8655 41.0669)" font-family="'STHeitiSC-Light'" font-size="14.0035">零售商</text>
<rect x="30.496" y="53.772" opacity="0.5" fill="#FFFFFF" stroke="#006600" stroke-width="2" enable-background="new    " width="56.705" height="42.53"/>
<rect x="97.512" y="53.772" opacity="0.5" fill="#FFFFFF" stroke="#006600" enable-background="new    " width="56.707" height="42.53"/>
<text transform="matrix(1 0 0 1 45.8455 72.0571)" font-family="'STHeitiSC-Light'" font-size="12.003">客户</text>
<text transform="matrix(1 0 0 1 45.8455 86.4595)" font-family="'STHeitiSC-Light'" font-size="12.003">订单</text>
<text transform="matrix(1 0 0 1 113.8635 72.0571)" font-family="'STHeitiSC-Light'" font-size="12.003">发出</text>
<text transform="matrix(1 0 0 1 113.8635 86.4595)" font-family="'STHeitiSC-Light'" font-size="12.003">订单</text>
<rect x="188.163" y="53.772" opacity="0.5" fill="#FFFFFF" stroke="#006600" enable-background="new    " width="56.708" height="42.53"/>
<text transform="matrix(1 0 0 1 204.5139 72.0571)" font-family="'STHeitiSC-Light'" font-size="12.003">收到</text>
<text transform="matrix(1 0 0 1 204.5139 86.4595)" font-family="'STHeitiSC-Light'" font-size="12.003">订单</text>
<rect x="255.181" y="53.772" opacity="0.5" fill="#FFFFFF" stroke="#006600" enable-background="new    " width="56.706" height="42.53"/>
<text transform="matrix(1 0 0 1 271.5305 72.0571)" font-family="'STHeitiSC-Light'" font-size="12.003">发出</text>
<text transform="matrix(1 0 0 1 271.5305 86.4595)" font-family="'STHeitiSC-Light'" font-size="12.003">订单</text>
<rect x="393.215" y="53.772" opacity="0.5" fill="#FFFFFF" stroke="#006600" enable-background="new    " width="56.705" height="42.53"/>
<text transform="matrix(1 0 0 1 409.5647 72.0571)" font-family="'STHeitiSC-Light'" font-size="12.003">收到</text>
<text transform="matrix(1 0 0 1 409.5647 86.4595)" font-family="'STHeitiSC-Light'" font-size="12.003">订单</text>
<rect x="268.742" y="108.526" opacity="0.5" fill="#FFFFFF" stroke="#006600" enable-background="new    " width="43.145" height="70.883"/>
<text transform="matrix(1 0 0 1 278.3118 133.5522)" font-family="'STHeitiSC-Light'" font-size="12.003">运输</text>
<text transform="matrix(1 0 0 1 278.3118 147.9556)" font-family="'STHeitiSC-Light'" font-size="12.003">延迟</text>
<text transform="matrix(1 0 0 1 274.9861 162.3604)" font-family="'STHeitiSC-Light'" font-size="12.003">第2周</text>
<rect x="188.163" y="108.526" opacity="0.5" fill="#FFFFFF" stroke="#006600" stroke-width="2" enable-background="new    " width="70.884" height="70.883"/>
<text transform="matrix(1 0 0 1 207.5999 140.4287)" font-family="'STHeitiSC-Light'" font-size="16.004">现有</text>
<text transform="matrix(1 0 0 1 207.5999 159.6343)" font-family="'STHeitiSC-Light'" font-size="16.004">库存</text>
<rect x="393.215" y="108.526" opacity="0.5" fill="#FFFFFF" stroke="#006600" stroke-width="2" enable-background="new    " width="70.883" height="70.883"/>
<text transform="matrix(1 0 0 1 412.6487 140.4287)" font-family="'STHeitiSC-Light'" font-size="16.004">现有</text>
<text transform="matrix(1 0 0 1 412.6487 159.6343)" font-family="'STHeitiSC-Light'" font-size="16.004">库存</text>
<rect x="498.719" y="323.578" opacity="0.5" fill="#FFFFFF" stroke="#006600" stroke-width="2" enable-background="new    " width="70.883" height="70.887"/>
<text transform="matrix(1 0 0 1 518.4417 354.4844)" font-family="'STHeitiSC-Light'" font-size="16.004">现有</text>
<text transform="matrix(1 0 0 1 518.4417 373.6875)" font-family="'STHeitiSC-Light'" font-size="16.004">库存</text>
<rect x="238.869" y="326.582" opacity="0.5" fill="#FFFFFF" stroke="#006600" stroke-width="2" enable-background="new    " width="70.883" height="70.881"/>
<text transform="matrix(1 0 0 1 258.3064 357.4824)" font-family="'STHeitiSC-Light'" font-size="16.004">现有</text>
<text transform="matrix(1 0 0 1 258.3064 376.6875)" font-family="'STHeitiSC-Light'" font-size="16.004">库存</text>
<rect x="331.42" y="108.526" opacity="0.5" fill="#FFFFFF" stroke="#006600" enable-background="new    " width="43.145" height="70.883"/>
<text transform="matrix(1 0 0 1 340.9866 133.5522)" font-family="'STHeitiSC-Light'" font-size="12.003">运输</text>
<text transform="matrix(1 0 0 1 340.9866 147.9556)" font-family="'STHeitiSC-Light'" font-size="12.003">延迟</text>
<text transform="matrix(1 0 0 1 337.6624 162.3604)" font-family="'STHeitiSC-Light'" font-size="12.003">第1周</text>
<rect x="472.768" y="108.526" opacity="0.5" fill="#FFFFFF" stroke="#006600" enable-background="new    " width="43.146" height="70.883"/>
<text transform="matrix(1 0 0 1 482.3401 133.5522)" font-family="'STHeitiSC-Light'" font-size="12.003">运输</text>
<text transform="matrix(1 0 0 1 482.3401 147.9556)" font-family="'STHeitiSC-Light'" font-size="12.003">延迟</text>
<text transform="matrix(1 0 0 1 479.0178 162.3604)" font-family="'STHeitiSC-Light'" font-size="12.003">第2周</text>
<rect x="535.449" y="108.526" opacity="0.5" fill="#FFFFFF" stroke="#006600" enable-background="new    " width="43.143" height="70.883"/>
<text transform="matrix(1 0 0 1 545.0178 133.5522)" font-family="'STHeitiSC-Light'" font-size="12.003">运输</text>
<text transform="matrix(1 0 0 1 545.0178 147.9556)" font-family="'STHeitiSC-Light'" font-size="12.003">延迟</text>
<text transform="matrix(1 0 0 1 541.6897 162.3604)" font-family="'STHeitiSC-Light'" font-size="12.003">第1周</text>
<rect x="458.008" y="190.585" opacity="0.5" fill="#FFFFFF" stroke="#006600" enable-background="new    " width="56.705" height="42.53"/>
<text transform="matrix(1 0 0 1 474.3596 209.873)" font-family="'STHeitiSC-Light'" font-size="12.003">发出</text>
<text transform="matrix(1 0 0 1 474.3596 224.2744)" font-family="'STHeitiSC-Light'" font-size="12.003">订单</text>
<rect x="458.008" y="268.219" opacity="0.5" fill="#FFFFFF" stroke="#006600" enable-background="new    " width="56.705" height="42.531"/>
<text transform="matrix(1 0 0 1 474.3596 286.5039)" font-family="'STHeitiSC-Light'" font-size="12.003">收到</text>
<text transform="matrix(1 0 0 1 474.3596 300.9082)" font-family="'STHeitiSC-Light'" font-size="12.003">订单</text>
<rect x="393.225" y="268.219" opacity="0.5" fill="#FFFFFF" stroke="#006600" enable-background="new    " width="56.703" height="42.531"/>
<text transform="matrix(1 0 0 1 409.5706 286.5039)" font-family="'STHeitiSC-Light'" font-size="12.003">发出</text>
<text transform="matrix(1 0 0 1 409.5706 300.9082)" font-family="'STHeitiSC-Light'" font-size="12.003">订单</text>
<rect x="253.179" y="268.219" opacity="0.5" fill="#FFFFFF" stroke="#006600" enable-background="new    " width="56.708" height="42.531"/>
<text transform="matrix(1 0 0 1 269.531 286.5039)" font-family="'STHeitiSC-Light'" font-size="12.003">收到</text>
<text transform="matrix(1 0 0 1 269.531 300.9082)" font-family="'STHeitiSC-Light'" font-size="12.003">订单</text>
<rect x="330.129" y="323.578" opacity="0.5" fill="#FFFFFF" stroke="#006600" enable-background="new    " width="43.145" height="70.887"/>
<text transform="matrix(1 0 0 1 339.6956 348.6074)" font-family="'STHeitiSC-Light'" font-size="12.003">运输</text>
<text transform="matrix(1 0 0 1 339.6956 363.0078)" font-family="'STHeitiSC-Light'" font-size="12.003">延迟</text>
<text transform="matrix(1 0 0 1 336.3713 377.4141)" font-family="'STHeitiSC-Light'" font-size="12.003">第1周</text>
<rect x="392.807" y="323.578" opacity="0.5" fill="#FFFFFF" stroke="#006600" enable-background="new    " width="43.143" height="70.887"/>
<text transform="matrix(1 0 0 1 402.3713 348.6074)" font-family="'STHeitiSC-Light'" font-size="12.003">运输</text>
<text transform="matrix(1 0 0 1 402.3713 363.0078)" font-family="'STHeitiSC-Light'" font-size="12.003">延迟</text>
<text transform="matrix(1 0 0 1 399.051 377.4141)" font-family="'STHeitiSC-Light'" font-size="12.003">第2周</text>
<rect x="117.783" y="326.582" opacity="0.5" fill="#FFFFFF" stroke="#006600" enable-background="new    " width="43.147" height="70.881"/>
<text transform="matrix(1 0 0 1 127.3513 351.6094)" font-family="'STHeitiSC-Light'" font-size="12.003">生产</text>
<text transform="matrix(1 0 0 1 127.3513 366.0137)" font-family="'STHeitiSC-Light'" font-size="12.003">延迟</text>
<text transform="matrix(1 0 0 1 124.0271 380.4141)" font-family="'STHeitiSC-Light'" font-size="12.003">第1周</text>
<rect x="172.457" y="326.582" opacity="0.5" fill="#FFFFFF" stroke="#006600" enable-background="new    " width="43.147" height="70.881"/>
<text transform="matrix(1 0 0 1 182.0281 351.6094)" font-family="'STHeitiSC-Light'" font-size="12.003">生产</text>
<text transform="matrix(1 0 0 1 182.0281 366.0137)" font-family="'STHeitiSC-Light'" font-size="12.003">延迟</text>
<text transform="matrix(1 0 0 1 178.7029 380.4141)" font-family="'STHeitiSC-Light'" font-size="12.003">第2周</text>
<g>
	<g>
		<line fill="none" stroke="#006600" stroke-width="2" x1="160.929" y1="362.02" x2="166.808" y2="362.02"/>
		<g>
			<polygon fill="#006600" points="172.457,362.02 164.498,365.273 166.385,362.02 164.498,358.771 			"/>
		</g>
	</g>
</g>
<g>
	<g>
		<line fill="none" stroke="#006600" stroke-width="2" x1="154.22" y1="75.036" x2="182.514" y2="75.036"/>
		<g>
			<polygon fill="#006600" points="188.163,75.036 180.202,78.291 182.093,75.036 180.202,71.786 			"/>
		</g>
	</g>
</g>
<g>
	<g>
		<line fill="none" stroke="#006600" stroke-width="2" x1="216.519" y1="362.02" x2="233.894" y2="362.02"/>
		<g>
			<polygon fill="#006600" points="239.542,362.02 231.581,365.273 233.47,362.02 231.581,358.771 			"/>
		</g>
	</g>
</g>
<g>
	<g>
		<line fill="none" stroke="#006600" stroke-width="2" x1="309.244" y1="362.02" x2="326.619" y2="362.02"/>
		<g>
			<polygon fill="#006600" points="332.27,362.02 324.309,365.273 326.196,362.02 324.309,358.771 			"/>
		</g>
	</g>
</g>
<g>
	<g>
		<line fill="none" stroke="#006600" stroke-width="2" x1="371.526" y1="362.02" x2="388.901" y2="362.02"/>
		<g>
			<polygon fill="#006600" points="394.551,362.02 386.592,365.273 388.479,362.02 386.592,358.771 			"/>
		</g>
	</g>
</g>
<g>
	<g>
		<line fill="none" stroke="#006600" stroke-width="2" x1="434.686" y1="362.02" x2="491.59" y2="362.02"/>
		<g>
			<polygon fill="#006600" points="497.239,362.02 489.278,365.273 491.17,362.02 489.278,358.771 			"/>
		</g>
	</g>
</g>
<g>
	<g>
		<line fill="none" stroke="#006600" stroke-width="2" x1="468.848" y1="143.967" x2="474.729" y2="143.967"/>
		<g>
			<polygon fill="#006600" points="463.199,143.967 471.16,147.221 469.27,143.967 471.16,140.716 			"/>
		</g>
	</g>
</g>
<g>
	<g>
		<line fill="none" stroke="#006600" stroke-width="2" x1="521.649" y1="143.967" x2="534.16" y2="143.967"/>
		<g>
			<polygon fill="#006600" points="516.002,143.967 523.965,147.221 522.073,143.967 523.965,140.716 			"/>
		</g>
	</g>
</g>
<g>
	<g>
		<line fill="none" stroke="#006600" stroke-width="2" x1="380.1" y1="143.967" x2="392.047" y2="143.967"/>
		<g>
			<polygon fill="#006600" points="374.449,143.967 382.41,147.221 380.52,143.967 382.41,140.716 			"/>
		</g>
	</g>
</g>
<g>
	<g>
		<line fill="none" stroke="#006600" stroke-width="2" x1="317.608" y1="143.967" x2="329.555" y2="143.967"/>
		<g>
			<polygon fill="#006600" points="311.957,143.967 319.918,147.221 318.03,143.967 319.918,140.716 			"/>
		</g>
	</g>
</g>
<g>
	<g>
		<line fill="none" stroke="#006600" stroke-width="2" x1="263.697" y1="143.967" x2="269.576" y2="143.967"/>
		<g>
			<polygon fill="#006600" points="258.048,143.967 266.008,147.221 264.119,143.967 266.008,140.716 			"/>
		</g>
	</g>
</g>
<g>
	<g>
		<line fill="none" stroke="#006600" stroke-width="2" x1="312.582" y1="75.036" x2="388.901" y2="75.036"/>
		<g>
			<polygon fill="#006600" points="394.553,75.036 386.594,78.291 388.481,75.036 386.594,71.786 			"/>
		</g>
	</g>
</g>
<g>
	<g>
		<line fill="none" stroke="#006600" stroke-width="2" x1="314.674" y1="289.484" x2="394.553" y2="289.484"/>
		<g>
			<polygon fill="#006600" points="309.026,289.484 316.987,292.736 315.098,289.484 316.987,286.234 			"/>
		</g>
	</g>
</g>
<g>
	<g>
		<line fill="none" stroke="#006600" stroke-width="2" x1="557.022" y1="185.059" x2="557.022" y2="323.578"/>
		<g>
			<polygon fill="#006600" points="557.022,179.409 553.766,187.37 557.022,185.483 560.272,187.37 			"/>
		</g>
	</g>
</g>
<g>
	<g>
		<line fill="none" stroke="#006600" stroke-width="2" x1="486.362" y1="231.99" x2="486.362" y2="262.57"/>
		<g>
			<polygon fill="#006600" points="486.362,268.219 483.106,260.26 486.362,262.145 489.612,260.26 			"/>
		</g>
	</g>
</g>
<line fill="none" stroke="#006600" stroke-width="2" x1="188.163" y1="143.967" x2="58.851" y2="143.967"/>
<g>
	<g>
		<line fill="none" stroke="#006600" stroke-width="2" x1="58.851" y1="143.967" x2="58.851" y2="101.953"/>
		<g>
			<polygon fill="#006600" points="58.851,96.302 62.102,104.264 58.851,102.372 55.598,104.264 			"/>
		</g>
	</g>
</g>
<text transform="matrix(1 0 0 1 38.8445 293.5703)" font-family="'STHeitiSC-Light'" font-size="12.003">原材料</text>
<g>
	<g>
		<line fill="none" stroke="#006600" stroke-width="2" x1="70.342" y1="298.574" x2="119.034" y2="298.574"/>
		<g>
			<polygon fill="#006600" points="124.685,298.574 116.725,301.826 118.613,298.574 116.725,295.32 			"/>
		</g>
	</g>
</g>
<rect x="125.866" y="268.217" opacity="0.5" fill="#FFFFFF" stroke="#006600" enable-background="new    " width="56.706" height="42.533"/>
<text transform="matrix(1 0 0 1 141.3557 286.1191)" font-family="'STHeitiSC-Light'" font-size="12.003">生产</text>
<text transform="matrix(1 0 0 1 141.3557 300.5215)" font-family="'STHeitiSC-Light'" font-size="12.003">任务</text>
</svg>
